<?xml version="1.0" encoding="UTF-8"?>
<svg width="30px" height="30px" viewBox="0 0 30 30" version="1.1" xmlns="http://www.w3.org/2000/svg" xmlns:xlink="http://www.w3.org/1999/xlink">
    <!-- Generator: Sketch 52.3 (67297) - http://www.bohemiancoding.com/sketch -->
    <title>buuback_icon</title>
    <desc>Created with Sketch.</desc>
    <g id="Page-1" stroke="none" stroke-width="1" fill="none" fill-rule="evenodd">
        <g id="Artboard" transform="translate(-454.000000, -253.000000)">
            <g id="buuback_icon" transform="translate(455.000000, 254.000000)">
                <path d="M8.6584,24.143 C3.56594,22.5499 0,17.8076 0,12.3529 C0,5.53041 5.53241,0 12.3574,0 C19.1824,0 24.7148,5.53041 24.7148,12.3529 L24.7148,13.2473 L26.6038,11.3589 C26.7592,11.2089 26.9673,11.1259 27.1833,11.1278 C27.3993,11.1297 27.606,11.2163 27.7587,11.369 C27.9115,11.5217 27.9981,11.7282 28,11.9441 C28.0018,12.1601 27.9188,12.3681 27.7687,12.5234 L24.4734,15.8175 C24.3189,15.9719 24.1094,16.0586 23.891,16.0586 C23.6725,16.0586 23.463,15.9719 23.3085,15.8175 L20.0132,12.5234 C19.8632,12.3681 19.7801,12.1601 19.782,11.9441 C19.7839,11.7282 19.8705,11.5217 20.0233,11.369 C20.176,11.2163 20.3826,11.1297 20.5986,11.1278 C20.8146,11.1259 21.0227,11.2089 21.1781,11.3589 L23.0672,13.2473 L23.0672,12.3529 C23.0672,6.44 18.2725,1.64706 12.3574,1.64706 C6.44233,1.64706 1.64765,6.44 1.64765,12.3529 C1.64765,16.9874 4.61879,21.0296 8.8928,22.4865 C9.1804,21.6893 9.707,21.0002 10.4007,20.5131 C11.0944,20.026 11.9216,19.7647 12.7693,19.7647 C15.0443,19.7647 16.8885,21.6082 16.8885,23.8824 C16.8885,26.1565 15.0443,28 12.7693,28 C10.5821,28 8.7927,26.2953 8.6584,24.143 Z M12.7693,26.3529 C13.4248,26.3529 14.0534,26.0926 14.5169,25.6293 C14.9804,25.166 15.2408,24.5376 15.2408,23.8824 C15.2408,23.2271 14.9804,22.5987 14.5169,22.1354 C14.0534,21.6721 13.4248,21.4118 12.7693,21.4118 C12.1138,21.4118 11.4852,21.6721 11.0217,22.1354 C10.5582,22.5987 10.2978,23.2271 10.2978,23.8824 C10.2978,24.5376 10.5582,25.166 11.0217,25.6293 C11.4852,26.0926 12.1138,26.3529 12.7693,26.3529 Z" id="Shape" fill="#D8B896" fill-rule="nonzero"></path>
                <path d="M8.6584,24.143 C3.56594,22.5499 0,17.8076 0,12.3529 C0,5.53041 5.53241,0 12.3574,0 C19.1824,0 24.7148,5.53041 24.7148,12.3529 L24.7148,13.2473 L26.6038,11.3589 C26.7592,11.2089 26.9673,11.1259 27.1833,11.1278 C27.3993,11.1297 27.606,11.2163 27.7587,11.369 C27.9115,11.5217 27.9981,11.7282 28,11.9441 C28.0018,12.1601 27.9188,12.3681 27.7687,12.5234 L24.4734,15.8175 C24.3189,15.9719 24.1094,16.0586 23.891,16.0586 C23.6725,16.0586 23.463,15.9719 23.3085,15.8175 L20.0132,12.5234 C19.8632,12.3681 19.7801,12.1601 19.782,11.9441 C19.7839,11.7282 19.8705,11.5217 20.0233,11.369 C20.176,11.2163 20.3826,11.1297 20.5986,11.1278 C20.8146,11.1259 21.0227,11.2089 21.1781,11.3589 L23.0672,13.2473 L23.0672,12.3529 C23.0672,6.44 18.2725,1.64706 12.3574,1.64706 C6.44233,1.64706 1.64765,6.44 1.64765,12.3529 C1.64765,16.9874 4.61879,21.0296 8.8928,22.4865 C9.1804,21.6893 9.707,21.0002 10.4007,20.5131 C11.0944,20.026 11.9216,19.7647 12.7693,19.7647 C15.0443,19.7647 16.8885,21.6082 16.8885,23.8824 C16.8885,26.1565 15.0443,28 12.7693,28 C10.5821,28 8.7927,26.2953 8.6584,24.143 Z M12.7693,26.3529 C13.4248,26.3529 14.0534,26.0926 14.5169,25.6293 C14.9804,25.166 15.2408,24.5376 15.2408,23.8824 C15.2408,23.2271 14.9804,22.5987 14.5169,22.1354 C14.0534,21.6721 13.4248,21.4118 12.7693,21.4118 C12.1138,21.4118 11.4852,21.6721 11.0217,22.1354 C10.5582,22.5987 10.2978,23.2271 10.2978,23.8824 C10.2978,24.5376 10.5582,25.166 11.0217,25.6293 C11.4852,26.0926 12.1138,26.3529 12.7693,26.3529 Z" id="Shape" stroke="#000000" stroke-width="0.5"></path>
            </g>
        </g>
    </g>
</svg>