<?xml version="1.0" encoding="UTF-8"?>
<svg width="28px" height="27px" viewBox="0 0 28 27" version="1.1" xmlns="http://www.w3.org/2000/svg" xmlns:xlink="http://www.w3.org/1999/xlink">
    <!-- Generator: Sketch 52.3 (67297) - http://www.bohemiancoding.com/sketch -->
    <title>gift_icon</title>
    <desc>Created with Sketch.</desc>
    <g id="Page-1" stroke="none" stroke-width="1" fill="none" fill-rule="evenodd">
        <g id="Artboard" transform="translate(-497.000000, -255.000000)" fill="#CDBD9C" fill-rule="nonzero" stroke="#000000" stroke-width="0.4">
            <g id="gift_icon" transform="translate(497.000000, 255.000000)">
                <path d="M22.9049,3.9153 L22.946,4.06096 L23.0973,4.06096 L24.2738,4.06096 C24.988,4.06096 25.6729,4.34463 26.1779,4.84956 C26.6829,5.35448 26.9666,6.03929 26.9666,6.75334 L26.9666,9.6452 C26.9651,10.2006 26.7917,10.742 26.4703,11.1951 C26.1489,11.6482 25.6952,11.9908 25.1714,12.176 L25.0381,12.2231 L25.0381,12.3646 L25.0381,24.1076 C25.0381,24.8217 24.7544,25.5065 24.2493,26.0114 C23.7443,26.5163 23.0594,26.8 22.3452,26.8 L4.98805,26.8 C4.27385,26.8 3.58891,26.5163 3.08391,26.0114 C2.5789,25.5065 2.2952,24.8217 2.2952,24.1076 L2.2952,12.3646 L2.2952,12.2231 L2.16185,12.176 C1.63804,11.9908 1.18434,11.6482 0.86294,11.1951 C0.5416,10.7421 0.36824,10.2008 0.36663,9.6454 L0.36663,6.75334 C0.36663,6.03929 0.65033,5.35448 1.15533,4.84956 C1.66034,4.34463 2.34528,4.06096 3.05948,4.06096 L4.23591,4.06096 L4.38788,4.06096 L4.4286,3.91455 C4.68737,2.98406 5.20639,2.14674 5.92467,1.50097 C6.64295,0.8552 7.53066,0.42782 8.4835,0.26904 C9.4363,0.11026 10.4147,0.22668 11.3036,0.60463 C12.1925,0.98258 12.9551,1.60634 13.5017,2.40263 L13.6659,2.64183 L13.8311,2.40327 C14.3799,1.61038 15.143,0.98991 16.0313,0.6143 C16.9195,0.23868 17.8963,0.12341 18.8476,0.28194 C19.7989,0.44046 20.6855,0.86625 21.4039,1.50959 C22.1223,2.15294 22.6429,2.9873 22.9049,3.9153 Z M18.0063,1.73271 L18.0056,1.73271 C17.3308,1.73386 16.6702,1.92643 16.1006,2.28805 C15.531,2.64967 15.0756,3.16548 14.7876,3.77557 L14.6528,4.06096 L14.9684,4.06096 L21.0434,4.06096 L21.359,4.06096 L21.2243,3.77557 C20.9362,3.16548 20.4809,2.64967 19.9112,2.28805 C19.3416,1.92643 18.681,1.73386 18.0063,1.73271 Z M12.3648,4.06096 L12.6798,4.06096 L12.5458,3.7759 C12.2587,3.16495 11.8036,2.64837 11.2336,2.28655 C10.6636,1.92473 10.0024,1.73263 9.3273,1.73271 L9.3273,1.93241 L9.327,1.73271 C8.6522,1.73386 7.99167,1.92643 7.42203,2.28805 C6.85239,2.64967 6.39707,3.16548 6.10899,3.77557 L5.97422,4.06096 L6.28984,4.06096 L12.3648,4.06096 Z M12.9023,5.78922 L12.9023,5.58922 L12.7023,5.58922 L3.05948,5.58922 C2.75071,5.58922 2.45457,5.71186 2.23622,5.93017 C2.01787,6.14848 1.8952,6.44459 1.8952,6.75334 L1.8952,9.6457 C1.8952,9.9545 2.01787,10.2506 2.23622,10.4689 C2.45457,10.6872 2.75071,10.8099 3.05948,10.8099 L12.7023,10.8099 L12.9023,10.8099 L12.9023,10.6098 L12.9023,5.78922 Z M4.02377,12.3381 L3.82377,12.3381 L3.82377,12.5381 L3.82377,24.1076 C3.82377,24.4164 3.94644,24.7125 4.16479,24.9308 C4.38314,25.1491 4.67928,25.2717 4.98805,25.2717 L12.7023,25.2717 L12.9023,25.2717 L12.9023,25.0717 L12.9023,12.5381 L12.9023,12.3381 L12.7023,12.3381 L4.02377,12.3381 Z M14.4309,25.0717 L14.4309,25.2717 L14.6309,25.2717 L22.3452,25.2717 C22.654,25.2717 22.9501,25.1491 23.1685,24.9308 C23.3868,24.7125 23.5095,24.4164 23.5095,24.1076 L23.5095,12.5381 L23.5095,12.3381 L23.3095,12.3381 L14.6309,12.3381 L14.4309,12.3381 L14.4309,12.5381 L14.4309,25.0717 Z M14.4309,10.6098 L14.4309,10.8099 L14.6309,10.8099 L24.2738,10.8099 C24.5825,10.8099 24.8787,10.6872 25.097,10.4689 C25.3154,10.2506 25.4381,9.9545 25.4381,9.6457 L25.4381,6.75334 C25.4381,6.44459 25.3154,6.14848 25.097,5.93017 C24.8787,5.71186 24.5825,5.58922 24.2738,5.58922 L14.6309,5.58922 L14.4309,5.58922 L14.4309,5.78922 L14.4309,10.6098 Z" id="Shape"></path>
            </g>
        </g>
    </g>
</svg>