<svg width="32" height="32" viewBox="0 0 32 32" fill="none" xmlns="http://www.w3.org/2000/svg">
<path d="M19.5716 19.4896C17.485 21.1641 14.5151 21.1641 12.4284 19.4896C12.1465 19.253 11.7262 19.2897 11.4896 19.5716C11.253 19.8535 11.2897 20.2738 11.5716 20.5104C12.8131 21.5504 14.3806 22.1209 16 22.1224C17.6195 22.1209 19.187 21.5504 20.4284 20.5104C20.7103 20.2738 20.747 19.8535 20.5104 19.5716C20.2739 19.2897 19.8535 19.253 19.5716 19.4896ZM13.2188 13.7813V13.7813C13.3955 13.7813 13.565 13.711 13.69 13.5861C13.9505 13.3258 13.9505 12.9037 13.6902 12.6432C12.3718 11.3829 10.295 11.3829 8.97658 12.6432C8.7226 12.9024 8.7226 13.3172 8.97658 13.5764C9.23431 13.8394 9.65635 13.8436 9.91929 13.5859C10.7149 12.8412 11.9518 12.8412 12.7474 13.5859C12.8723 13.7112 13.0419 13.7815 13.2188 13.7813ZM18.3099 12.6432C18.0559 12.9024 18.0559 13.3172 18.3099 13.5764C18.5676 13.8394 18.9897 13.8436 19.2526 13.5859C20.0482 12.8412 21.2852 12.8412 22.0807 13.5859C22.2056 13.7112 22.3753 13.7815 22.5521 13.7813L22.5522 13.7813C22.7289 13.7813 22.8985 13.711 23.0234 13.5861C23.2838 13.3258 23.2838 12.9037 23.0235 12.6432C21.7051 11.3829 19.6284 11.3829 18.3099 12.6432ZM16 2.66667C8.63625 2.66667 2.66669 8.63624 2.66669 16C2.66669 23.3638 8.63625 29.3333 16 29.3333C23.3602 29.3247 29.3247 23.3602 29.3334 16C29.3334 8.63624 23.3638 2.66667 16 2.66667ZM16 28C9.37258 28 4.00002 22.6274 4.00002 16C4.00002 9.37256 9.37258 4.00001 16 4.00001C22.6245 4.00725 27.9928 9.37558 28 16C28 22.6274 22.6275 28 16 28Z" fill="#CDBD9C"/>
</svg>
