<svg width="25" height="24" viewBox="0 0 25 24" fill="none" xmlns="http://www.w3.org/2000/svg">
<mask id="path-1-inside-1_2609_1770" fill="white">
<path fill-rule="evenodd" clip-rule="evenodd" d="M12.1758 0C18.8032 0 24.1758 5.37258 24.1758 12C24.1758 17.9895 19.7876 22.954 14.0508 23.8542V15.4688H16.8469L17.3789 12H14.0508V9.75C14.0508 8.80102 14.5158 7.875 16.0064 7.875H17.5195V4.92188C17.5195 4.92188 17.3604 4.89472 17.0987 4.8589C16.6876 4.80263 16.0235 4.72498 15.3256 4.69757C15.1624 4.69116 14.9974 4.6875 14.8334 4.6875C12.0923 4.6875 10.3008 6.34875 10.3008 9.35625V12H7.25391V15.4688H10.3008V23.8542C4.56398 22.954 0.175781 17.9895 0.175781 12C0.175781 5.37258 5.54836 0 12.1758 0Z"/>
</mask>
<path fill-rule="evenodd" clip-rule="evenodd" d="M12.1758 0C18.8032 0 24.1758 5.37258 24.1758 12C24.1758 17.9895 19.7876 22.954 14.0508 23.8542V15.4688H16.8469L17.3789 12H14.0508V9.75C14.0508 8.80102 14.5158 7.875 16.0064 7.875H17.5195V4.92188C17.5195 4.92188 17.3604 4.89472 17.0987 4.8589C16.6876 4.80263 16.0235 4.72498 15.3256 4.69757C15.1624 4.69116 14.9974 4.6875 14.8334 4.6875C12.0923 4.6875 10.3008 6.34875 10.3008 9.35625V12H7.25391V15.4688H10.3008V23.8542C4.56398 22.954 0.175781 17.9895 0.175781 12C0.175781 5.37258 5.54836 0 12.1758 0Z" fill="#1877F2"/>
<path d="M14.0508 23.8542H13.0508V25.0234L14.2058 24.8421L14.0508 23.8542ZM14.0508 15.4688V14.4688H13.0508V15.4688H14.0508ZM16.8469 15.4688V16.4688H17.7052L17.8353 15.6204L16.8469 15.4688ZM17.3789 12L18.3673 12.1516L18.544 11H17.3789V12ZM14.0508 12H13.0508V13H14.0508V12ZM17.5195 7.875V8.875H18.5195V7.875H17.5195ZM17.5195 4.92188H18.5195V4.07805L17.6877 3.93612L17.5195 4.92188ZM17.0987 4.8589L16.9631 5.84966L17.0987 4.8589ZM15.3256 4.69757L15.2864 5.6968L15.3256 4.69757ZM10.3008 12V13H11.3008V12H10.3008ZM7.25391 12V11H6.25391V12H7.25391ZM7.25391 15.4688H6.25391V16.4688H7.25391V15.4688ZM10.3008 15.4688H11.3008V14.4688H10.3008V15.4688ZM10.3008 23.8542L10.1458 24.8421L11.3008 25.0234V23.8542H10.3008ZM25.1758 12C25.1758 4.82029 19.3555 -1 12.1758 -1V1C18.2509 1 23.1758 5.92486 23.1758 12H25.1758ZM14.2058 24.8421C20.4215 23.8667 25.1758 18.4895 25.1758 12H23.1758C23.1758 17.4894 19.1537 22.0412 13.8958 22.8663L14.2058 24.8421ZM15.0508 23.8542V15.4688H13.0508V23.8542H15.0508ZM14.0508 16.4688H16.8469V14.4688H14.0508V16.4688ZM16.3905 11.8484L15.8584 15.3171L17.8353 15.6204L18.3673 12.1516L16.3905 11.8484ZM17.3789 11H14.0508V13H17.3789V11ZM15.0508 12V9.75H13.0508V12H15.0508ZM15.0508 9.75C15.0508 9.42089 15.1331 9.21823 15.2262 9.11049C15.2958 9.02995 15.4786 8.875 16.0064 8.875V6.875C15.0436 6.875 14.2485 7.18306 13.713 7.80277C13.2009 8.39528 13.0508 9.13012 13.0508 9.75H15.0508ZM16.0064 8.875H17.5195V6.875H16.0064V8.875ZM18.5195 7.875V4.92188H16.5195V7.875H18.5195ZM16.9631 5.84966C17.0873 5.86667 17.1865 5.88152 17.2537 5.89196C17.2873 5.89718 17.3128 5.90128 17.3294 5.90399C17.3376 5.90534 17.3437 5.90635 17.3474 5.90697C17.3492 5.90728 17.3505 5.90749 17.3512 5.9076C17.3515 5.90766 17.3517 5.90769 17.3517 5.90769C17.3517 5.90769 17.3517 5.90769 17.3516 5.90768C17.3516 5.90768 17.3516 5.90767 17.3515 5.90766C17.3515 5.90766 17.3515 5.90765 17.3514 5.90765C17.3514 5.90764 17.3514 5.90764 17.3514 5.90764C17.3514 5.90763 17.3513 5.90763 17.5195 4.92188C17.6877 3.93612 17.6877 3.93612 17.6877 3.93611C17.6877 3.93611 17.6876 3.93611 17.6876 3.9361C17.6876 3.93609 17.6875 3.93609 17.6875 3.93608C17.6874 3.93606 17.6873 3.93605 17.6872 3.93603C17.687 3.93599 17.6867 3.93595 17.6864 3.9359C17.6858 3.9358 17.6851 3.93567 17.6842 3.93552C17.6824 3.93522 17.68 3.93481 17.677 3.93431C17.6709 3.9333 17.6625 3.93191 17.6518 3.93016C17.6304 3.92665 17.5997 3.92173 17.5608 3.91568C17.483 3.90359 17.3717 3.88695 17.2343 3.86814L16.9631 5.84966ZM15.2864 5.6968C15.9399 5.72247 16.5692 5.79575 16.9631 5.84966L17.2343 3.86814C16.806 3.80952 16.1071 3.72749 15.3649 3.69834L15.2864 5.6968ZM14.8334 5.6875C14.9827 5.6875 15.1345 5.69084 15.2864 5.6968L15.3649 3.69834C15.1903 3.69149 15.0121 3.6875 14.8334 3.6875V5.6875ZM11.3008 9.35625C11.3008 8.05207 11.6851 7.16285 12.2466 6.60084C12.8091 6.03783 13.6649 5.6875 14.8334 5.6875V3.6875C13.2608 3.6875 11.8503 4.1678 10.8318 5.18728C9.8122 6.20778 9.30078 7.65293 9.30078 9.35625H11.3008ZM9.30078 9.35625V12H11.3008V9.35625H9.30078ZM10.3008 11H7.25391V13H10.3008V11ZM6.25391 12V15.4688H8.25391V12H6.25391ZM7.25391 16.4688H10.3008V14.4688H7.25391V16.4688ZM9.30078 15.4688V23.8542H11.3008V15.4688H9.30078ZM-0.824219 12C-0.824219 18.4895 3.93008 23.8667 10.1458 24.8421L10.4558 22.8663C5.19789 22.0412 1.17578 17.4894 1.17578 12H-0.824219ZM12.1758 -1C4.99608 -1 -0.824219 4.82029 -0.824219 12H1.17578C1.17578 5.92486 6.10064 1 12.1758 1V-1Z" fill="#1877F2" mask="url(#path-1-inside-1_2609_1770)"/>
</svg>
