<svg width="28" height="22" viewBox="0 0 28 22" fill="none" xmlns="http://www.w3.org/2000/svg">
<path d="M13.7734 2.75C13.7734 1.75 13.7734 1.75 13.7733 1.75L13.773 1.75L13.7718 1.75L13.7675 1.75L13.7512 1.75002L13.6881 1.75013C13.6331 1.75026 13.5524 1.75051 13.4492 1.75102C13.2428 1.75204 12.9465 1.75406 12.5853 1.75812C11.8632 1.76622 10.8801 1.78244 9.8375 1.81494C8.79661 1.84738 7.68816 1.8963 6.71816 1.97044C5.78136 2.04204 4.88703 2.14264 4.3175 2.30016C2.98112 2.65206 1.89913 3.74007 1.54967 5.11195C1.26026 6.13555 1.12976 7.64868 1.06591 8.82981C1.03293 9.4399 1.01649 9.99121 1.00827 10.3899C1.00415 10.5895 1.00209 10.7514 1.00105 10.8641C1.00053 10.9204 1.00027 10.9644 1.00014 10.9947L1.00002 11.0297L1 11.0391L1 11.0417L1 11.0425L1 11.0428C1 11.0429 1 11.043 2 11.043C1 11.043 1 11.043 1 11.0431L1 11.0434L1 11.0442L1 11.0468L1.00002 11.0562L1.00014 11.0908C1.00027 11.1208 1.00053 11.1644 1.00105 11.2202C1.00209 11.3318 1.00416 11.4922 1.00827 11.6902C1.0165 12.0856 1.03294 12.6329 1.06592 13.2403C1.12996 14.4196 1.26082 15.9302 1.54891 16.971C1.90382 18.3688 3.00701 19.401 4.3257 19.745L4.33029 19.7461C4.89166 19.8898 5.78292 19.9822 6.72448 20.0482C7.69273 20.116 8.79978 20.1608 9.84009 20.1905C10.8819 20.2203 11.8645 20.2351 12.5862 20.2426C12.9472 20.2463 13.2434 20.2481 13.4496 20.2491C13.5527 20.2495 13.6333 20.2498 13.6883 20.2499L13.7513 20.25L13.7676 20.25L13.7718 20.25H13.773H13.7733C13.7734 20.25 13.7734 20.25 13.7734 19.25C13.7734 20.25 13.7735 20.25 13.7736 20.25H13.7739H13.775L13.7793 20.25L13.7955 20.25L13.8581 20.2499C13.9128 20.2498 13.9929 20.2495 14.0955 20.2491C14.3005 20.2481 14.595 20.2463 14.954 20.2426C15.6717 20.2351 16.6489 20.2203 17.6854 20.1905C18.7204 20.1608 19.8222 20.116 20.7864 20.0481C21.7243 19.9821 22.6125 19.8897 23.1736 19.7462L23.1782 19.745C24.4969 19.401 25.6001 18.3688 25.955 16.971C26.2431 15.9302 26.3739 14.4196 26.438 13.2403C26.471 12.6329 26.4874 12.0856 26.4956 11.6902C26.4998 11.4922 26.5018 11.3318 26.5029 11.2202C26.5034 11.1644 26.5036 11.1208 26.5038 11.0908L26.5039 11.0562L26.5039 11.0468L26.5039 11.0442V11.0434V11.0431C26.5039 11.043 26.5039 11.043 25.5039 11.043C26.5039 11.043 26.5039 11.0429 26.5039 11.0428V11.0425V11.0417L26.5039 11.0391L26.5039 11.0297L26.5038 10.9947C26.5036 10.9644 26.5034 10.9204 26.5029 10.8641C26.5018 10.7514 26.4998 10.5895 26.4956 10.3899C26.4874 9.99121 26.471 9.4399 26.438 8.82981C26.3741 7.64869 26.2436 6.13557 25.9542 5.11197C25.6048 3.74008 24.5228 2.65206 23.1864 2.30015C22.6172 2.14272 21.7259 2.04209 20.7928 1.97046C19.8267 1.89631 18.7236 1.84739 17.6881 1.81494C16.6508 1.78245 15.673 1.76623 14.955 1.75812C14.5957 1.75407 14.301 1.75204 14.0959 1.75102C13.9933 1.75051 13.913 1.75026 13.8583 1.75013L13.7956 1.75002L13.7793 1.75L13.775 1.75L13.7739 1.75L13.7736 1.75C13.7735 1.75 13.7734 1.75 13.7734 2.75ZM12.3672 12.8018V9.28417L15.4505 11.043L12.3672 12.8018Z" stroke="#B2071D" stroke-width="2"/>
</svg>
